# This file uses centimeters as units for non-parametric coordinates.

mtllib Ambient_Ring.mtl
g default
v 0.000000 0.000000 -1.000000
v -0.309017 0.000000 -0.951057
v -0.587785 0.000000 -0.809017
v -0.809017 0.000000 -0.587785
v -0.951057 0.000000 -0.309017
v -1.000000 0.000000 0.000000
v -0.951057 0.000000 0.309017
v -0.809017 0.000000 0.587785
v -0.587785 0.000000 0.809017
v -0.309017 0.000000 0.951057
v -0.000000 0.000000 1.000000
v 0.309017 0.000000 0.951057
v 0.587785 0.000000 0.809017
v 0.000000 2.000000 -1.000000
v -0.309017 2.000000 -0.951057
v -0.587785 2.000000 -0.809017
v -0.809017 2.000000 -0.587785
v -0.951057 2.000000 -0.309017
v -1.000000 2.000000 0.000000
v -0.951057 2.000000 0.309017
v -0.809017 2.000000 0.587785
v -0.587785 2.000000 0.809017
v -0.309017 2.000000 0.951057
v -0.000000 2.000000 1.000000
v 0.309017 2.000000 0.951057
v 0.587785 2.000000 0.809017
vt 0.437500 0.312500
vt 0.450000 0.312500
vt 0.462500 0.312500
vt 0.475000 0.312500
vt 0.487500 0.312500
vt 0.500000 0.312500
vt 0.512500 0.312500
vt 0.525000 0.312500
vt 0.537500 0.312500
vt 0.550000 0.312500
vt 0.562500 0.312500
vt 0.437500 0.687500
vt 0.450000 0.687500
vt 0.462500 0.687500
vt 0.475000 0.687500
vt 0.487500 0.687500
vt 0.500000 0.687500
vt 0.512500 0.687500
vt 0.525000 0.687500
vt 0.537500 0.687500
vt 0.550000 0.687500
vt 0.562500 0.687500
vn 0.156435 0.000000 0.987688
vn 0.156435 0.000000 0.987688
vn 0.309017 0.000000 0.951056
vn 0.309017 0.000000 0.951056
vn 0.587785 0.000000 0.809017
vn 0.587785 0.000000 0.809017
vn 0.809017 0.000000 0.587785
vn 0.809017 0.000000 0.587785
vn 0.951057 0.000000 0.309017
vn 0.951057 0.000000 0.309017
vn 1.000000 0.000000 0.000000
vn 1.000000 0.000000 0.000000
vn 0.951057 0.000000 -0.309017
vn 0.951057 0.000000 -0.309017
vn 0.809017 0.000000 -0.587785
vn 0.809017 0.000000 -0.587785
vn 0.587785 0.000000 -0.809017
vn 0.587785 0.000000 -0.809017
vn 0.309017 0.000000 -0.951057
vn 0.309017 0.000000 -0.951057
vn -0.000000 0.000000 -1.000000
vn -0.000000 0.000000 -1.000000
vn -0.309017 0.000000 -0.951057
vn -0.309017 0.000000 -0.951057
vn -0.453991 0.000000 -0.891007
vn -0.453991 0.000000 -0.891007
s 1
g OpenCan
usemtl initialShadingGroup
f 1//1 14//2 15//3 2//4
f 2/1/4 15/12/3 16/13/5 3/2/6
f 3/2/6 16/13/5 17/14/7 4/3/8
f 4/3/8 17/14/7 18/15/9 5/4/10
f 5/4/10 18/15/9 19/16/11 6/5/12
f 6/5/12 19/16/11 20/17/13 7/6/14
f 7/6/14 20/17/13 21/18/15 8/7/16
f 8/7/16 21/18/15 22/19/17 9/8/18
f 9/8/18 22/19/17 23/20/19 10/9/20
f 10/9/20 23/20/19 24/21/21 11/10/22
f 11/10/22 24/21/21 25/22/23 12/11/24
f 12//24 25//23 26//25 13//26
